<mxfile host="app.diagrams.net" agent="Mozilla/5.0 (Macintosh; Intel Mac OS X 10_15_7) AppleWebKit/537.36 (KHTML, like Gecko) Chrome/136.0.0.0 Safari/537.36" version="27.0.8">
  <diagram name="第 1 页" id="3eABUHyCKs2bz61vo5ZD">
    <mxGraphModel dx="2066" dy="1126" grid="1" gridSize="10" guides="1" tooltips="1" connect="1" arrows="1" fold="1" page="1" pageScale="1" pageWidth="827" pageHeight="1169" math="0" shadow="0">
      <root>
        <mxCell id="0" />
        <mxCell id="1" parent="0" />
        <mxCell id="ab5NvaaaieyLFnDCbvIF-1" value="运营平台" style="swimlane;whiteSpace=wrap;html=1;" vertex="1" parent="1">
          <mxGeometry x="720" y="520" width="200" height="1280" as="geometry" />
        </mxCell>
        <mxCell id="ab5NvaaaieyLFnDCbvIF-2" value="" style="edgeStyle=orthogonalEdgeStyle;rounded=0;orthogonalLoop=1;jettySize=auto;html=1;" edge="1" parent="ab5NvaaaieyLFnDCbvIF-1" source="ab5NvaaaieyLFnDCbvIF-3" target="ab5NvaaaieyLFnDCbvIF-6">
          <mxGeometry relative="1" as="geometry" />
        </mxCell>
        <mxCell id="ab5NvaaaieyLFnDCbvIF-3" value="参数校验" style="rounded=0;whiteSpace=wrap;html=1;" vertex="1" parent="ab5NvaaaieyLFnDCbvIF-1">
          <mxGeometry x="40" y="80" width="120" height="60" as="geometry" />
        </mxCell>
        <mxCell id="ab5NvaaaieyLFnDCbvIF-4" value="Thrift" style="shape=step;perimeter=stepPerimeter;whiteSpace=wrap;html=1;fixedSize=1;" vertex="1" parent="ab5NvaaaieyLFnDCbvIF-1">
          <mxGeometry x="40" y="320" width="120" height="80" as="geometry" />
        </mxCell>
        <mxCell id="ab5NvaaaieyLFnDCbvIF-5" style="edgeStyle=orthogonalEdgeStyle;rounded=0;orthogonalLoop=1;jettySize=auto;html=1;exitX=0.5;exitY=1;exitDx=0;exitDy=0;entryX=0.5;entryY=0;entryDx=0;entryDy=0;" edge="1" parent="ab5NvaaaieyLFnDCbvIF-1" source="ab5NvaaaieyLFnDCbvIF-6" target="ab5NvaaaieyLFnDCbvIF-4">
          <mxGeometry relative="1" as="geometry" />
        </mxCell>
        <mxCell id="ab5NvaaaieyLFnDCbvIF-6" value="数据换换" style="whiteSpace=wrap;html=1;rounded=0;" vertex="1" parent="ab5NvaaaieyLFnDCbvIF-1">
          <mxGeometry x="40" y="200" width="120" height="60" as="geometry" />
        </mxCell>
        <mxCell id="ab5NvaaaieyLFnDCbvIF-7" value="Thrift" style="shape=step;perimeter=stepPerimeter;whiteSpace=wrap;html=1;fixedSize=1;" vertex="1" parent="ab5NvaaaieyLFnDCbvIF-1">
          <mxGeometry x="40" y="480" width="120" height="80" as="geometry" />
        </mxCell>
        <mxCell id="ab5NvaaaieyLFnDCbvIF-8" style="edgeStyle=orthogonalEdgeStyle;rounded=0;orthogonalLoop=1;jettySize=auto;html=1;exitX=0.5;exitY=1;exitDx=0;exitDy=0;entryX=0.5;entryY=0;entryDx=0;entryDy=0;" edge="1" parent="ab5NvaaaieyLFnDCbvIF-1" source="ab5NvaaaieyLFnDCbvIF-9" target="ab5NvaaaieyLFnDCbvIF-10">
          <mxGeometry relative="1" as="geometry" />
        </mxCell>
        <mxCell id="ab5NvaaaieyLFnDCbvIF-9" value="组装表单，准备提交审批" style="rounded=0;whiteSpace=wrap;html=1;" vertex="1" parent="ab5NvaaaieyLFnDCbvIF-1">
          <mxGeometry x="40" y="640" width="120" height="60" as="geometry" />
        </mxCell>
        <mxCell id="ab5NvaaaieyLFnDCbvIF-10" value="Thrift" style="shape=step;perimeter=stepPerimeter;whiteSpace=wrap;html=1;fixedSize=1;" vertex="1" parent="ab5NvaaaieyLFnDCbvIF-1">
          <mxGeometry x="40" y="760" width="120" height="80" as="geometry" />
        </mxCell>
        <mxCell id="ab5NvaaaieyLFnDCbvIF-11" value="" style="edgeStyle=orthogonalEdgeStyle;rounded=0;orthogonalLoop=1;jettySize=auto;html=1;" edge="1" parent="ab5NvaaaieyLFnDCbvIF-1" source="ab5NvaaaieyLFnDCbvIF-12" target="ab5NvaaaieyLFnDCbvIF-14">
          <mxGeometry relative="1" as="geometry" />
        </mxCell>
        <mxCell id="ab5NvaaaieyLFnDCbvIF-12" value="接收快搭回调数据" style="rounded=0;whiteSpace=wrap;html=1;" vertex="1" parent="ab5NvaaaieyLFnDCbvIF-1">
          <mxGeometry x="40" y="910" width="120" height="60" as="geometry" />
        </mxCell>
        <mxCell id="ab5NvaaaieyLFnDCbvIF-13" value="" style="edgeStyle=orthogonalEdgeStyle;rounded=0;orthogonalLoop=1;jettySize=auto;html=1;" edge="1" parent="ab5NvaaaieyLFnDCbvIF-1" source="ab5NvaaaieyLFnDCbvIF-14" target="ab5NvaaaieyLFnDCbvIF-15">
          <mxGeometry relative="1" as="geometry" />
        </mxCell>
        <mxCell id="ab5NvaaaieyLFnDCbvIF-14" value="异步任务" style="shape=hexagon;perimeter=hexagonPerimeter2;whiteSpace=wrap;html=1;fixedSize=1;rounded=0;fillColor=#e1d5e7;strokeColor=#9673a6;" vertex="1" parent="ab5NvaaaieyLFnDCbvIF-1">
          <mxGeometry x="40" y="1040" width="120" height="80" as="geometry" />
        </mxCell>
        <mxCell id="ab5NvaaaieyLFnDCbvIF-15" value="执行器" style="whiteSpace=wrap;html=1;rounded=0;" vertex="1" parent="ab5NvaaaieyLFnDCbvIF-1">
          <mxGeometry x="40" y="1160" width="120" height="60" as="geometry" />
        </mxCell>
        <mxCell id="ab5NvaaaieyLFnDCbvIF-16" value="调整项系统" style="swimlane;whiteSpace=wrap;html=1;" vertex="1" parent="1">
          <mxGeometry x="920" y="520" width="320" height="1280" as="geometry" />
        </mxCell>
        <mxCell id="ab5NvaaaieyLFnDCbvIF-17" value="保存数据" style="rounded=0;whiteSpace=wrap;html=1;" vertex="1" parent="ab5NvaaaieyLFnDCbvIF-16">
          <mxGeometry x="100" y="330" width="120" height="60" as="geometry" />
        </mxCell>
        <mxCell id="ab5NvaaaieyLFnDCbvIF-18" value="更新状态为审批中" style="whiteSpace=wrap;html=1;" vertex="1" parent="ab5NvaaaieyLFnDCbvIF-16">
          <mxGeometry x="40" y="490" width="120" height="60" as="geometry" />
        </mxCell>
        <mxCell id="ab5NvaaaieyLFnDCbvIF-19" value="为什么在这里设置为审批中，而不是先提交审批，再改为审批中？&lt;div&gt;&lt;br&gt;&lt;div&gt;答：因为快搭回调是异步的，页面会有一段时间还是处于【初始化】阶段，造成重复提交。&lt;/div&gt;&lt;/div&gt;" style="shape=note;whiteSpace=wrap;html=1;backgroundOutline=1;fontColor=#000000;darkOpacity=0.05;fillColor=#FFF9B2;strokeColor=none;fillStyle=solid;direction=west;gradientDirection=north;gradientColor=#FFF2A1;shadow=1;size=20;pointerEvents=1;" vertex="1" parent="ab5NvaaaieyLFnDCbvIF-16">
          <mxGeometry x="160" y="450" width="140" height="160" as="geometry" />
        </mxCell>
        <mxCell id="ab5NvaaaieyLFnDCbvIF-20" value="记录日志" style="whiteSpace=wrap;html=1;rounded=0;" vertex="1" parent="ab5NvaaaieyLFnDCbvIF-16">
          <mxGeometry x="100" y="1160" width="120" height="60" as="geometry" />
        </mxCell>
        <mxCell id="ab5NvaaaieyLFnDCbvIF-21" value="审批系统（快搭）" style="swimlane;whiteSpace=wrap;html=1;" vertex="1" parent="1">
          <mxGeometry x="1240" y="520" width="200" height="1280" as="geometry" />
        </mxCell>
        <mxCell id="ab5NvaaaieyLFnDCbvIF-22" value="" style="edgeStyle=orthogonalEdgeStyle;rounded=0;orthogonalLoop=1;jettySize=auto;html=1;" edge="1" parent="ab5NvaaaieyLFnDCbvIF-21" source="ab5NvaaaieyLFnDCbvIF-23" target="ab5NvaaaieyLFnDCbvIF-24">
          <mxGeometry relative="1" as="geometry" />
        </mxCell>
        <mxCell id="ab5NvaaaieyLFnDCbvIF-23" value="提交审批" style="rounded=0;whiteSpace=wrap;html=1;" vertex="1" parent="ab5NvaaaieyLFnDCbvIF-21">
          <mxGeometry x="40" y="770" width="120" height="60" as="geometry" />
        </mxCell>
        <mxCell id="ab5NvaaaieyLFnDCbvIF-24" value="异步回调（https）" style="shape=hexagon;perimeter=hexagonPerimeter2;whiteSpace=wrap;html=1;fixedSize=1;rounded=0;" vertex="1" parent="ab5NvaaaieyLFnDCbvIF-21">
          <mxGeometry x="40" y="900" width="120" height="80" as="geometry" />
        </mxCell>
        <mxCell id="ab5NvaaaieyLFnDCbvIF-25" style="edgeStyle=orthogonalEdgeStyle;rounded=0;orthogonalLoop=1;jettySize=auto;html=1;exitX=0.5;exitY=0.5;exitDx=0;exitDy=0;exitPerimeter=0;entryX=0;entryY=0.5;entryDx=0;entryDy=0;" edge="1" parent="1" source="ab5NvaaaieyLFnDCbvIF-27" target="ab5NvaaaieyLFnDCbvIF-3">
          <mxGeometry relative="1" as="geometry" />
        </mxCell>
        <mxCell id="ab5NvaaaieyLFnDCbvIF-26" value="保存并提交审批" style="edgeLabel;html=1;align=center;verticalAlign=middle;resizable=0;points=[];" vertex="1" connectable="0" parent="ab5NvaaaieyLFnDCbvIF-25">
          <mxGeometry x="-0.1897" y="1" relative="1" as="geometry">
            <mxPoint as="offset" />
          </mxGeometry>
        </mxCell>
        <mxCell id="ab5NvaaaieyLFnDCbvIF-27" value="Actor" style="shape=umlActor;verticalLabelPosition=bottom;verticalAlign=top;html=1;outlineConnect=0;" vertex="1" parent="1">
          <mxGeometry x="550" y="600" width="30" height="60" as="geometry" />
        </mxCell>
        <mxCell id="ab5NvaaaieyLFnDCbvIF-28" style="edgeStyle=orthogonalEdgeStyle;rounded=0;orthogonalLoop=1;jettySize=auto;html=1;exitX=1;exitY=0.5;exitDx=0;exitDy=0;" edge="1" parent="1" source="ab5NvaaaieyLFnDCbvIF-4" target="ab5NvaaaieyLFnDCbvIF-17">
          <mxGeometry relative="1" as="geometry" />
        </mxCell>
        <mxCell id="ab5NvaaaieyLFnDCbvIF-29" style="edgeStyle=orthogonalEdgeStyle;rounded=0;orthogonalLoop=1;jettySize=auto;html=1;exitX=0.5;exitY=1;exitDx=0;exitDy=0;dashed=1;dashPattern=8 8;entryX=0.5;entryY=0;entryDx=0;entryDy=0;" edge="1" parent="1" source="ab5NvaaaieyLFnDCbvIF-17" target="ab5NvaaaieyLFnDCbvIF-7">
          <mxGeometry relative="1" as="geometry">
            <mxPoint x="820" y="1000" as="targetPoint" />
          </mxGeometry>
        </mxCell>
        <mxCell id="ab5NvaaaieyLFnDCbvIF-30" value="" style="edgeStyle=orthogonalEdgeStyle;rounded=0;orthogonalLoop=1;jettySize=auto;html=1;" edge="1" parent="1" source="ab5NvaaaieyLFnDCbvIF-7" target="ab5NvaaaieyLFnDCbvIF-18">
          <mxGeometry relative="1" as="geometry" />
        </mxCell>
        <mxCell id="ab5NvaaaieyLFnDCbvIF-31" style="edgeStyle=orthogonalEdgeStyle;rounded=0;orthogonalLoop=1;jettySize=auto;html=1;exitX=0.5;exitY=1;exitDx=0;exitDy=0;entryX=0.5;entryY=0;entryDx=0;entryDy=0;dashed=1;dashPattern=8 8;" edge="1" parent="1" source="ab5NvaaaieyLFnDCbvIF-18" target="ab5NvaaaieyLFnDCbvIF-9">
          <mxGeometry relative="1" as="geometry" />
        </mxCell>
        <mxCell id="ab5NvaaaieyLFnDCbvIF-32" style="edgeStyle=orthogonalEdgeStyle;rounded=0;orthogonalLoop=1;jettySize=auto;html=1;exitX=1;exitY=0.5;exitDx=0;exitDy=0;entryX=0;entryY=0.5;entryDx=0;entryDy=0;" edge="1" parent="1" source="ab5NvaaaieyLFnDCbvIF-10" target="ab5NvaaaieyLFnDCbvIF-23">
          <mxGeometry relative="1" as="geometry" />
        </mxCell>
        <mxCell id="ab5NvaaaieyLFnDCbvIF-33" style="edgeStyle=orthogonalEdgeStyle;rounded=0;orthogonalLoop=1;jettySize=auto;html=1;exitX=0;exitY=0.5;exitDx=0;exitDy=0;entryX=1;entryY=0.5;entryDx=0;entryDy=0;" edge="1" parent="1" source="ab5NvaaaieyLFnDCbvIF-24" target="ab5NvaaaieyLFnDCbvIF-12">
          <mxGeometry relative="1" as="geometry" />
        </mxCell>
        <mxCell id="ab5NvaaaieyLFnDCbvIF-34" style="edgeStyle=orthogonalEdgeStyle;rounded=0;orthogonalLoop=1;jettySize=auto;html=1;exitX=1;exitY=0.5;exitDx=0;exitDy=0;entryX=0;entryY=0.5;entryDx=0;entryDy=0;" edge="1" parent="1" source="ab5NvaaaieyLFnDCbvIF-15" target="ab5NvaaaieyLFnDCbvIF-20">
          <mxGeometry relative="1" as="geometry" />
        </mxCell>
      </root>
    </mxGraphModel>
  </diagram>
</mxfile>
